<?xml version="1.0" standalone="no"?><!DOCTYPE svg PUBLIC "-//W3C//DTD SVG 1.1//EN" "http://www.w3.org/Graphics/SVG/1.1/DTD/svg11.dtd"><svg t="1577337386488" class="icon" viewBox="0 0 1024 1024" version="1.1" xmlns="http://www.w3.org/2000/svg" p-id="19649" width="16" height="16" xmlns:xlink="http://www.w3.org/1999/xlink"><defs><style type="text/css"></style></defs><path d="M951 116.7H73c-4.9 0-9 4-9 9v71.9c0 4.9 4 9 9 9h878c4.9 0 9-4 9-9v-71.9c0-5-4-9-9-9z m0 700.8H73c-4.9 0-9 4-9 9v71.9c0 4.9 4 9 9 9h878c4.9 0 9-4 9-9v-71.9c0-5-4-9-9-9z m0-350.4H73c-4.9 0-9 4-9 9V548c0 4.9 4 9 9 9h878c4.9 0 9-4 9-9v-71.9c0-5-4-9-9-9z" p-id="19650" fill="#ffffff"></path></svg>