<svg t="1613669753397" class="icon" viewBox="0 0 1024 1024" version="1.1" xmlns="http://www.w3.org/2000/svg" p-id="27626" width="200" height="200"><path d="M795.861333 560.469333a35.925333 35.925333 0 0 1 39.509334 0.256 41.301333 41.301333 0 0 1 17.834666 37.589334 40.32 40.32 0 0 1-23.210666 34.133333l-303.402667 161.706667a35.84 35.84 0 0 1-34.133333 0l-303.402667-161.706667c-17.066667-10.922667-23.253333-34.005333-14.293333-52.906667 8.96-18.901333 30.08-27.221333 48.426666-19.072l286.293334 152.405334 286.378666-152.405334z m0.426667-341.333333a35.456 35.456 0 0 1 39.253333 0.256 41.386667 41.386667 0 0 1 17.664 37.589333 40.32 40.32 0 0 1-23.04 34.133334l-301.226666 161.706666a35.370667 35.370667 0 0 1-33.877334 0l-301.226666-161.706666a40.32 40.32 0 0 1-23.04-34.133334 41.386667 41.386667 0 0 1 17.706666-37.589333 35.456 35.456 0 0 1 39.253334-0.256L512 371.541333l284.288-152.405333z" p-id="27627" fill="#ffffff"></path></svg>
