<?xml version="1.0" standalone="no"?><!DOCTYPE svg PUBLIC "-//W3C//DTD SVG 1.1//EN" "http://www.w3.org/Graphics/SVG/1.1/DTD/svg11.dtd"><svg t="1613669423167" class="icon" viewBox="0 0 1024 1024" version="1.1" xmlns="http://www.w3.org/2000/svg" p-id="22290" xmlns:xlink="http://www.w3.org/1999/xlink" width="16" height="16"><defs><style type="text/css"></style></defs><path d="M687.616 450.048h-381.952c-17.408 0-31.744 14.336-31.744 31.744s14.336 31.744 31.744 31.744h381.952c17.408 0 31.744-14.336 31.744-31.744s-14.336-31.744-31.744-31.744z m0 185.344h-381.952c-17.408 0.512-31.744 14.848-31.232 32.256 0.512 16.896 14.336 31.232 31.232 31.232h381.952c17.408-0.512 31.744-14.848 31.232-32.256 0-16.896-13.824-30.72-31.232-31.232z m0-371.2h-382.464c-17.408 0.512-31.744 14.848-31.232 32.256 0.512 16.896 14.336 31.232 31.232 31.232h381.952c17.408-0.512 31.744-14.848 31.232-32.256 0.512-16.896-13.312-30.72-30.72-31.232z" p-id="22291" fill="#ffffff"></path><path d="M811.52 99.84h-583.68C175.616 100.352 133.12 142.848 133.12 195.584v636.928c0 52.736 43.008 95.744 95.744 95.744h270.848c1.536 0 3.584 0 5.12-0.512h297.472c52.736 0 95.744-43.008 95.744-95.744V195.072c-0.512-49.664-38.4-90.112-86.528-95.232z m22.528 95.744V831.488c0 17.408-14.336 31.744-31.744 31.744h-573.44c-17.408 0-31.744-14.336-31.744-31.744V195.584c0-17.408 14.336-31.744 31.744-31.744h572.928c17.92-0.512 32.256 13.824 32.256 31.744 0-0.512 0-0.512 0 0z" p-id="22292" fill="#ffffff"></path></svg>
