<?xml version="1.0" standalone="no"?><!DOCTYPE svg PUBLIC "-//W3C//DTD SVG 1.1//EN" "http://www.w3.org/Graphics/SVG/1.1/DTD/svg11.dtd"><svg t="1613662282263" class="icon" viewBox="0 0 1024 1024" version="1.1" xmlns="http://www.w3.org/2000/svg" p-id="9819" xmlns:xlink="http://www.w3.org/1999/xlink" width="16" height="16"><defs><style type="text/css"></style></defs><path d="M608 384c-53 0-96 43-96 96s43 96 96 96 96-43 96-96-43-96-96-96z m32 96c0 17.7-14.3 32-32 32s-32-14.3-32-32 14.3-32 32-32 32 14.3 32 32z" p-id="9820" fill="#ffffff"></path><path d="M832 256H622.5c-10.7 0-20.7-5.3-26.6-14.2l-66.3-99.5c-5.9-8.9-15.9-14.2-26.6-14.2H128c-35.3 0-64 28.7-64 64v640c0 35.3 28.7 64 64 64h704c35.3 0 64-28.7 64-64V320c0-35.3-28.7-64-64-64z m-704-32c0-17.7 14.3-32 32-32h313.5c10.7 0 20.7 5.3 26.6 14.2 14.2 21.3-1.1 49.8-26.6 49.8h-63.3c-21.4 0-41.4 10.7-53.3 28.5l-56.8 85.3c-5.9 8.9-15.9 14.2-26.6 14.2H160c-17.7 0-32-14.3-32-32V224z m704 576c0 17.7-14.3 32-32 32H160c-17.7 0-32-14.3-32-32V480c0-17.7 14.3-32 32-32h125.7c21.4 0 41.4-10.7 53.3-28.5l56.8-85.3c5.9-8.9 15.9-14.2 26.6-14.2H800c17.7 0 32 14.3 32 32v448z" p-id="9821" fill="#ffffff"></path></svg>
