<?xml version="1.0" standalone="no"?><!DOCTYPE svg PUBLIC "-//W3C//DTD SVG 1.1//EN" "http://www.w3.org/Graphics/SVG/1.1/DTD/svg11.dtd"><svg t="1577337123925" class="icon" viewBox="0 0 1024 1024" version="1.1" xmlns="http://www.w3.org/2000/svg" p-id="15084" width="16" height="16" xmlns:xlink="http://www.w3.org/1999/xlink"><defs><style type="text/css"></style></defs><path d="M512 378c-70.592 0-128 57.408-128 128s57.408 128 128 128 128-57.408 128-128-57.408-128-128-128z m0 192c-35.296 0-64-28.704-64-64s28.704-64 64-64 64 28.704 64 64-28.704 64-64 64z m416-96h-0.928C911.424 269.776 748.224 106.576 544 90.928V90c0-17.664-14.336-32-32-32s-32 14.336-32 32v0.928C275.776 106.576 112.576 269.776 96.928 474H96c-17.664 0-32 14.336-32 32s14.336 32 32 32h0.928C112.576 742.224 275.776 905.424 480 921.072V922c0 17.696 14.336 32 32 32s32-14.304 32-32v-0.928C748.224 905.424 911.424 742.224 927.072 538H928c17.696 0 32-14.336 32-32s-14.304-32-32-32zM544 857.072V794c0-17.696-14.336-32-32-32s-32 14.304-32 32v63.072C311.04 841.776 176.224 706.928 160.928 538H224c17.664 0 32-14.336 32-32s-14.336-32-32-32h-63.072C176.224 305.04 311.04 170.224 480 154.928V218c0 17.664 14.336 32 32 32s32-14.336 32-32v-63.072C712.928 170.224 847.776 305.04 863.072 474H800c-17.696 0-32 14.336-32 32s14.304 32 32 32h63.072C847.776 706.928 712.928 841.776 544 857.072z" p-id="15085" fill="#2c2c2c"></path></svg>